<svg id="Layer_1" data-name="Layer 1" xmlns="http://www.w3.org/2000/svg" viewBox="0 0 372.68 181.71"><defs><style>.cls-1{fill:#841719;}.cls-1,.cls-2,.cls-3,.cls-4{stroke:#231f20;stroke-miterlimit:10;}.cls-2{fill:#262a6b;}.cls-3{fill:#1a3a1c;}.cls-4,.cls-5{fill:#d3cc53;}.cls-5{font-size:32.9px;font-family:SpectralSC-Medium, Spectral SC;font-weight:500;}.cls-6{letter-spacing:0em;}.cls-7{letter-spacing:0.01em;}.cls-8{letter-spacing:0.01em;}</style></defs><g id="Logo"><rect class="cls-1" x="0.5" y="119.64" width="371.68" height="61.57"/><rect class="cls-2" x="0.5" y="58.08" width="310.8" height="61.57"/><rect class="cls-3" x="0.5" y="0.5" width="221.57" height="57.58"/><rect class="cls-4" x="52.15" y="160.1" width="61.57" height="20.82" transform="translate(-140.83 233.37) rotate(-90)"/><rect class="cls-4" x="366.71" y="159.87" width="61.11" height="20.82" transform="translate(173.72 547.46) rotate(-90)"/><rect class="cls-4" x="52.15" y="98.53" width="61.57" height="20.82" transform="translate(-79.26 171.8) rotate(-90)"/><rect class="cls-4" x="307.74" y="98.53" width="61.57" height="20.82" transform="translate(176.32 427.38) rotate(-90)"/><rect class="cls-4" x="54.15" y="38.96" width="57.58" height="20.82" transform="translate(-19.69 112.23) rotate(-90)"/><rect class="cls-4" x="221.23" y="38.96" width="57.58" height="20.82" transform="translate(147.38 279.3) rotate(-90)"/><text class="cls-5" transform="translate(74.53 38.69) scale(1.21 1)">THE</text><text class="cls-5" transform="translate(74.53 100.52) scale(1.21 1)"><tspan class="cls-6">B</tspan><tspan class="cls-7" x="22.14" y="0">O</tspan><tspan x="49.03" y="0">OK</tspan></text><text class="cls-5" transform="translate(74.53 156.84) scale(1.21 1)">N<tspan class="cls-8" x="26.42" y="0">O</tspan><tspan x="53.3" y="0">OK</tspan></text></g></svg>